<svg width="14" height="14" viewBox="0 0 14 14" fill="none" xmlns="http://www.w3.org/2000/svg">
<path d="M11 0H3C1.34315 0 0 1.34315 0 3V11C0 12.6569 1.34315 14 3 14H11C12.6569 14 14 12.6569 14 11V3C14 1.34315 12.6569 0 11 0Z" fill="url(#paint0_radial_5_626)"/>
<path d="M11 0H3C1.34315 0 0 1.34315 0 3V11C0 12.6569 1.34315 14 3 14H11C12.6569 14 14 12.6569 14 11V3C14 1.34315 12.6569 0 11 0Z" fill="url(#paint1_radial_5_626)"/>
<path d="M11 0H3C1.34315 0 0 1.34315 0 3V11C0 12.6569 1.34315 14 3 14H11C12.6569 14 14 12.6569 14 11V3C14 1.34315 12.6569 0 11 0Z" fill="url(#paint2_radial_5_626)"/>
<path d="M10.5 4.25C10.5 4.6642 10.1642 5 9.75 5C9.3358 5 9 4.6642 9 4.25C9 3.83579 9.3358 3.5 9.75 3.5C10.1642 3.5 10.5 3.83579 10.5 4.25Z" fill="white"/>
<path fill-rule="evenodd" clip-rule="evenodd" d="M7 9.5C8.3807 9.5 9.5 8.3807 9.5 7C9.5 5.6193 8.3807 4.5 7 4.5C5.6193 4.5 4.5 5.6193 4.5 7C4.5 8.3807 5.6193 9.5 7 9.5ZM7 8.5C7.82845 8.5 8.5 7.82845 8.5 7C8.5 6.17155 7.82845 5.5 7 5.5C6.17155 5.5 5.5 6.17155 5.5 7C5.5 7.82845 6.17155 8.5 7 8.5Z" fill="white"/>
<path fill-rule="evenodd" clip-rule="evenodd" d="M2 6.8C2 5.11985 2 4.27975 2.32698 3.63803C2.6146 3.07354 3.07354 2.6146 3.63803 2.32698C4.27975 2 5.11985 2 6.8 2H7.2C8.88015 2 9.72025 2 10.3619 2.32698C10.9264 2.6146 11.3854 3.07354 11.673 3.63803C12 4.27975 12 5.11985 12 6.8V7.2C12 8.88015 12 9.72025 11.673 10.3619C11.3854 10.9264 10.9264 11.3854 10.3619 11.673C9.72025 12 8.88015 12 7.2 12H6.8C5.11985 12 4.27975 12 3.63803 11.673C3.07354 11.3854 2.6146 10.9264 2.32698 10.3619C2 9.72025 2 8.88015 2 7.2V6.8ZM6.8 3H7.2C8.0566 3 8.63885 3.00078 9.08895 3.03755C9.5274 3.07337 9.7516 3.1383 9.908 3.21799C10.2843 3.40974 10.5903 3.7157 10.782 4.092C10.8617 4.2484 10.9267 4.4726 10.9625 4.91105C10.9992 5.36115 11 5.9434 11 6.8V7.2C11 8.0566 10.9992 8.63885 10.9625 9.08895C10.9267 9.5274 10.8617 9.7516 10.782 9.908C10.5903 10.2843 10.2843 10.5903 9.908 10.782C9.7516 10.8617 9.5274 10.9267 9.08895 10.9625C8.63885 10.9992 8.0566 11 7.2 11H6.8C5.9434 11 5.36115 10.9992 4.91105 10.9625C4.4726 10.9267 4.2484 10.8617 4.092 10.782C3.7157 10.5903 3.40974 10.2843 3.21799 9.908C3.1383 9.7516 3.07337 9.5274 3.03755 9.08895C3.00078 8.63885 3 8.0566 3 7.2V6.8C3 5.9434 3.00078 5.36115 3.03755 4.91105C3.07337 4.4726 3.1383 4.2484 3.21799 4.092C3.40974 3.7157 3.7157 3.40974 4.092 3.21799C4.2484 3.1383 4.4726 3.07337 4.91105 3.03755C5.36115 3.00078 5.9434 3 6.8 3Z" fill="white"/>
<defs>
<radialGradient id="paint0_radial_5_626" cx="0" cy="0" r="1" gradientUnits="userSpaceOnUse" gradientTransform="translate(5 10.5) rotate(-55.3758) scale(12.7598)">
<stop stop-color="#B13589"/>
<stop offset="0.79309" stop-color="#C62F94"/>
<stop offset="1" stop-color="#8A3AC8"/>
</radialGradient>
<radialGradient id="paint1_radial_5_626" cx="0" cy="0" r="1" gradientUnits="userSpaceOnUse" gradientTransform="translate(4.5 14.5) rotate(-65.1363) scale(11.2971)">
<stop stop-color="#E0E8B7"/>
<stop offset="0.444662" stop-color="#FB8A2E"/>
<stop offset="0.71474" stop-color="#E2425C"/>
<stop offset="1" stop-color="#E2425C" stop-opacity="0"/>
</radialGradient>
<radialGradient id="paint2_radial_5_626" cx="0" cy="0" r="1" gradientUnits="userSpaceOnUse" gradientTransform="translate(-0.75 0.5) rotate(-8.1301) scale(19.4455 4.15918)">
<stop offset="0.156701" stop-color="#406ADC"/>
<stop offset="0.467799" stop-color="#6A45BE"/>
<stop offset="1" stop-color="#6A45BE" stop-opacity="0"/>
</radialGradient>
</defs>
</svg>
