<svg width="14" height="13" viewBox="0 0 14 13" fill="none" xmlns="http://www.w3.org/2000/svg">
<path d="M3.30012 0.0475693C2.95553 0.137819 2.62188 0.408571 2.46599 0.72308C2.31557 1.03212 2.31831 0.955544 2.32104 4.64761C2.32104 6.52099 2.33198 8.14549 2.34292 8.26036C2.36207 8.44633 2.37848 8.48735 2.50428 8.67332C2.73401 9.01244 3.01023 9.22029 3.33294 9.29414C3.41225 9.31328 5.09146 9.32422 8.17365 9.32422C12.8284 9.32422 12.8995 9.32422 13.0745 9.26952C13.4054 9.1656 13.6899 8.92766 13.8457 8.61862C14.0016 8.30685 13.9962 8.47094 13.9962 4.66128C13.9962 0.80786 14.0044 1.01024 13.8293 0.679322C13.7254 0.487882 13.4847 0.249949 13.2906 0.151494C12.9706 -0.0098629 13.2578 -0.00165844 8.15724 0.0010767C3.82795 0.0010767 3.46695 0.00381088 3.30012 0.0475693ZM12.8557 0.911785C12.9706 0.958278 13.0882 1.09776 13.1073 1.20989C13.1155 1.25911 13.1183 2.33938 13.1155 3.61109L13.1073 5.92752L12.0544 4.69683C11.4746 4.02132 10.9413 3.41145 10.8702 3.34581C10.6678 3.15164 10.5311 3.10241 10.2221 3.10241C10.0005 3.10241 9.94037 3.11335 9.81183 3.17352C9.72705 3.2118 9.61218 3.28565 9.55202 3.33761C9.49458 3.38957 8.95582 4.01859 8.35688 4.73512C7.75795 5.45439 7.25747 6.04239 7.24653 6.04239C7.23559 6.04239 7.04415 5.85915 6.81989 5.63489C6.31121 5.12347 6.21549 5.07151 5.81893 5.07151C5.38135 5.07424 5.4005 5.06057 4.21083 6.24476L3.19346 7.2594L3.19893 4.2237C3.20714 1.21535 3.20714 1.18801 3.26457 1.09229C3.29465 1.04032 3.3685 0.969217 3.42866 0.936399L3.53532 0.873497H8.15177C11.9888 0.873497 12.7819 0.878967 12.8557 0.911785ZM10.315 4.02406C10.3533 4.05961 10.9988 4.80623 11.7536 5.68685L13.1237 7.28675L13.1155 7.72979C13.1073 8.21933 13.0937 8.25762 12.9022 8.38616L12.812 8.44906H8.16544C4.05495 8.44906 3.51071 8.44359 3.4396 8.40804C3.39311 8.38343 3.35756 8.35608 3.35756 8.34514C3.35756 8.31232 5.71774 5.96854 5.78611 5.93299C5.84901 5.90291 5.88457 5.93299 6.44248 6.48817C6.77066 6.81362 7.0715 7.08984 7.11252 7.10625C7.22191 7.14727 7.39421 7.14453 7.4872 7.09531C7.52822 7.07343 8.14083 6.36236 8.85189 5.50909C9.74346 4.43976 10.1564 3.96389 10.192 3.96389C10.2221 3.96389 10.2768 3.99124 10.315 4.02406Z" fill="white"/>
<path d="M1.22579 4.71009C1.17382 4.74291 1.11092 4.80854 1.08631 4.8523C1.0152 4.97263 0.0197117 8.80965 0.00330255 9.02296C-0.0349855 9.52344 0.263114 10.0458 0.717101 10.2673C0.862049 10.3384 1.60046 10.5463 3.63246 11.0878C5.12843 11.4898 7.13582 12.0258 8.09029 12.2802C9.04475 12.5373 9.8953 12.7643 9.97734 12.7861C10.1496 12.8299 10.4587 12.8354 10.631 12.7943C10.9646 12.7178 11.3448 12.4142 11.4952 12.1052C11.5389 12.0149 11.6456 11.6402 11.7495 11.2245C11.9164 10.5408 11.9246 10.4943 11.8917 10.3849C11.8015 10.0814 11.4405 9.96649 11.2053 10.1634C11.0904 10.2619 11.0768 10.3029 10.8963 11.0358C10.8087 11.3831 10.7158 11.7059 10.6857 11.7524C10.6146 11.8727 10.4806 11.9493 10.3438 11.9493C10.2481 11.9493 8.87246 11.5883 4.67171 10.4588C4.25875 10.3494 3.29334 10.0896 2.52484 9.88445C1.75908 9.67933 1.09998 9.49063 1.06169 9.46328C0.971444 9.39764 0.870254 9.21987 0.870254 9.12142C0.870254 9.07766 1.09725 8.16695 1.3762 7.10309C1.65516 6.0365 1.88215 5.12032 1.88215 5.06562C1.88215 4.92888 1.80831 4.79213 1.69345 4.71282C1.56217 4.62531 1.35432 4.62257 1.22579 4.71009Z" fill="white"/>
</svg>
